<?xml version="1.0" encoding="iso-8859-1"?>
<!-- Generator: Adobe Illustrator 19.0.0, SVG Export Plug-In . SVG Version: 6.00 Build 0)  -->
<svg version="1.1" id="Capa_1" xmlns="http://www.w3.org/2000/svg" xmlns:xlink="http://www.w3.org/1999/xlink" x="0px" y="0px"
	 viewBox="0 0 512 512" style="enable-background:new 0 0 512 512;" xml:space="preserve">
<polygon style="fill:#ECF0F1;" points="315.733,42.667 223.36,219.008 302.02,401.067 503.467,401.067 "/>
<path style="fill:#6C9941;" d="M162.133,324.267c0,42.419-34.381,76.8-76.8,76.8s-76.8-34.381-76.8-76.8s34.381-76.8,76.8-76.8
	S162.133,281.847,162.133,324.267"/>
<path style="fill:#88C057;" d="M187.733,136.533l-64.179,121.182c23.031,13.261,38.579,38.067,38.579,66.551
	c0,34.833-23.211,64.213-54.997,73.617c-1.562,1.092-11.657,2.167-13.269,3.183h100.207H302.02L187.733,136.533z"/>
<g>
	<path style="fill:#805333;" d="M85.333,384c-2.185,0-4.369-0.836-6.033-2.5l-25.6-25.6c-3.337-3.337-3.337-8.73,0-12.066
		c3.337-3.337,8.73-3.337,12.066,0l25.6,25.6c3.337,3.337,3.337,8.73,0,12.066C89.702,383.164,87.518,384,85.333,384"/>
	<path style="fill:#805333;" d="M85.333,384c-2.185,0-4.369-0.836-6.033-2.5c-3.337-3.337-3.337-8.73,0-12.066l25.6-25.6
		c3.337-3.337,8.73-3.337,12.066,0c3.337,3.337,3.337,8.73,0,12.066l-25.6,25.6C89.702,383.164,87.518,384,85.333,384"/>
	<path style="fill:#805333;" d="M85.333,503.467c-4.71,0-8.533-3.823-8.533-8.533V375.467c0-4.71,3.823-8.533,8.533-8.533
		s8.533,3.823,8.533,8.533v119.467C93.867,499.644,90.044,503.467,85.333,503.467"/>
	<path style="fill:#805333;" d="M196.267,384c-2.185,0-4.369-0.836-6.033-2.5l-17.067-17.067c-3.337-3.337-3.337-8.73,0-12.066
		c3.337-3.337,8.73-3.337,12.066,0l17.067,17.067c3.337,3.337,3.337,8.73,0,12.066C200.636,383.164,198.451,384,196.267,384"/>
	<path style="fill:#805333;" d="M196.267,384c-2.185,0-4.369-0.836-6.033-2.5c-3.337-3.337-3.337-8.73,0-12.066l17.067-17.067
		c3.337-3.337,8.73-3.337,12.066,0c3.337,3.337,3.337,8.73,0,12.066L202.3,381.5C200.636,383.164,198.451,384,196.267,384"/>
	<path style="fill:#805333;" d="M196.267,503.467c-4.71,0-8.533-3.823-8.533-8.533V375.467c0-4.71,3.823-8.533,8.533-8.533
		s8.533,3.823,8.533,8.533v119.467C204.8,499.644,200.977,503.467,196.267,503.467"/>
	<polygon style="fill:#805333;" points="281.6,179.2 298.667,162.133 315.733,179.2 332.8,162.133 349.867,179.2 374.4,154.667 
		315.733,42.667 257.067,154.667 	"/>
</g>
<path style="fill:#BDC3C7;" d="M494.933,85.333c-4.71,0-8.533-3.823-8.533-8.533c0-9.412-7.654-17.067-17.067-17.067h-68.267
	c-14.114,0-25.6-11.486-25.6-25.6s11.486-25.6,25.6-25.6H435.2c4.71,0,8.533,3.823,8.533,8.533S439.91,25.6,435.2,25.6h-34.133
	c-4.702,0-8.533,3.831-8.533,8.533s3.831,8.533,8.533,8.533h68.267c18.825,0,34.133,15.309,34.133,34.133
	C503.467,81.51,499.644,85.333,494.933,85.333"/>
<g>
	<path style="fill:#88C057;" d="M503.467,503.467c-4.71,0-8.533-3.823-8.533-8.533V486.4c0-4.71,3.823-8.533,8.533-8.533
		S512,481.69,512,486.4v8.533C512,499.644,508.177,503.467,503.467,503.467"/>
	<path style="fill:#88C057;" d="M469.333,503.467c-4.71,0-8.533-3.823-8.533-8.533V486.4c0-4.71,3.823-8.533,8.533-8.533
		s8.533,3.823,8.533,8.533v8.533C477.867,499.644,474.044,503.467,469.333,503.467"/>
	<path style="fill:#88C057;" d="M435.2,503.467c-4.71,0-8.533-3.823-8.533-8.533V486.4c0-4.71,3.823-8.533,8.533-8.533
		s8.533,3.823,8.533,8.533v8.533C443.733,499.644,439.91,503.467,435.2,503.467"/>
	<path style="fill:#88C057;" d="M401.067,503.467c-4.71,0-8.533-3.823-8.533-8.533V486.4c0-4.71,3.823-8.533,8.533-8.533
		s8.533,3.823,8.533,8.533v8.533C409.6,499.644,405.777,503.467,401.067,503.467"/>
	<path style="fill:#88C057;" d="M366.933,503.467c-4.71,0-8.533-3.823-8.533-8.533V486.4c0-4.71,3.823-8.533,8.533-8.533
		s8.533,3.823,8.533,8.533v8.533C375.467,499.644,371.644,503.467,366.933,503.467"/>
	<path style="fill:#88C057;" d="M332.8,503.467c-4.71,0-8.533-3.823-8.533-8.533V486.4c0-4.71,3.823-8.533,8.533-8.533
		s8.533,3.823,8.533,8.533v8.533C341.333,499.644,337.51,503.467,332.8,503.467"/>
	<path style="fill:#88C057;" d="M298.667,503.467c-4.71,0-8.533-3.823-8.533-8.533V486.4c0-4.71,3.823-8.533,8.533-8.533
		s8.533,3.823,8.533,8.533v8.533C307.2,499.644,303.377,503.467,298.667,503.467"/>
	<path style="fill:#88C057;" d="M264.533,503.467c-4.71,0-8.533-3.823-8.533-8.533V486.4c0-4.71,3.823-8.533,8.533-8.533
		s8.533,3.823,8.533,8.533v8.533C273.067,499.644,269.244,503.467,264.533,503.467"/>
	<path style="fill:#88C057;" d="M230.4,503.467c-4.71,0-8.533-3.823-8.533-8.533V486.4c0-4.71,3.823-8.533,8.533-8.533
		s8.533,3.823,8.533,8.533v8.533C238.933,499.644,235.11,503.467,230.4,503.467"/>
	<path style="fill:#88C057;" d="M162.133,503.467c-4.71,0-8.533-3.823-8.533-8.533V486.4c0-4.71,3.823-8.533,8.533-8.533
		s8.533,3.823,8.533,8.533v8.533C170.667,499.644,166.844,503.467,162.133,503.467"/>
	<path style="fill:#88C057;" d="M119.467,503.467c-4.71,0-8.533-3.823-8.533-8.533V486.4c0-4.71,3.823-8.533,8.533-8.533
		S128,481.69,128,486.4v8.533C128,499.644,124.177,503.467,119.467,503.467"/>
	<path style="fill:#88C057;" d="M42.667,503.467c-4.71,0-8.533-3.823-8.533-8.533V486.4c0-4.71,3.823-8.533,8.533-8.533
		S51.2,481.69,51.2,486.4v8.533C51.2,499.644,47.377,503.467,42.667,503.467"/>
	<path style="fill:#88C057;" d="M8.533,503.467c-4.71,0-8.533-3.823-8.533-8.533V486.4c0-4.71,3.823-8.533,8.533-8.533
		s8.533,3.823,8.533,8.533v8.533C17.067,499.644,13.244,503.467,8.533,503.467"/>
</g>
<path style="fill:#BDC3C7;" d="M139.733,74.667c12.322,0,22.4,11.042,22.4,24.533s-13.815,20.796-26.129,20.796H39.996h-3.2
	c-17.673,0-28.262-11.955-28.262-31.309s14.327-35.046,32-35.046c0,0,14.797-28.041,51.2-28.041c22.801,0,44.8,12.706,44.8,49.067
	C136.534,74.667,139.733,74.667,139.733,74.667z"/>
<g>
</g>
<g>
</g>
<g>
</g>
<g>
</g>
<g>
</g>
<g>
</g>
<g>
</g>
<g>
</g>
<g>
</g>
<g>
</g>
<g>
</g>
<g>
</g>
<g>
</g>
<g>
</g>
<g>
</g>
</svg>
