<svg id="Capa_1" enable-background="new 0 0 512.593 512.593" height="512" viewBox="0 0 512.593 512.593" width="512" xmlns="http://www.w3.org/2000/svg"><path d="m0 .267h356.59v512.06h-356.59z" fill="#dff2f7"/><path d="m216.38.267h140.21v512.06h-140.21z" fill="#baeaf3"/><path d="m0 .266h76.089v512.061h-76.089z" fill="#23c4ea"/><path d="m54.423.267h30v512.06h-30z" fill="#ff4945"/><path d="m141.76 79.637h149.24v30h-149.24z" fill="#39689e"/><path d="m141.76 155.057h149.24v30h-149.24z" fill="#39689e"/><path d="m141.76 230.477h149.24v30h-149.24z" fill="#39689e"/><path d="m244.08 305.897-30 30h-72.32v-30z" fill="#39689e"/><g fill="#224370"><path d="m283 438.077h30v30h-30z"/><path d="m216.38 305.897h27.7l-27.7 27.7z"/><path d="m216.38 79.637h74.62v30h-74.62z"/><path d="m216.38 155.057h74.62v30h-74.62z"/><path d="m216.38 230.477h74.62v30h-74.62z"/></g><path d="m465.005 153.822-156.758 156.758-50.148-18.696-18.703-50.155 156.758-156.758s27.542 3.345 46.527 22.331c18.979 18.978 22.324 46.52 22.324 46.52z" fill="#23c4ea"/><path d="m465.005 153.822-156.758 156.758-50.892-17.952 186.181-186.181c18.979 18.979 21.469 47.375 21.469 47.375z" fill="#00aaf1"/><path d="m498.353 120.474-22.868 22.868-68.851-68.851 22.868-22.868c18.986-18.986 49.872-18.986 68.858 0 18.978 18.979 18.978 49.866-.007 68.851z" fill="#39689e"/><path d="m308.247 310.58-94.165 25.322 25.314-94.173z" fill="#f9c5b9"/><path d="m273.825 276.158 34.422 34.422-94.165 25.322z" fill="#ffb19e"/><path d="m498.353 120.474-22.868 22.868-34.422-34.422 57.297-57.297c18.978 18.979 18.978 49.866-.007 68.851z" fill="#224370"/><path d="m426.186 60.105h30v97.37h-30z" fill="#f4d34e" transform="matrix(.707 -.707 .707 .707 52.295 343.83)"/><path d="m443.401 101.664h30v48.68h-30z" fill="#ffa41f" transform="matrix(.707 -.707 .707 .707 45.164 361.044)"/><path d="m246.403 327.211-32.321 8.691 8.69-32.322z" fill="#39689e"/><path d="m234.588 315.396 11.815 11.815-32.321 8.691z" fill="#224370"/></svg>